<svg width="14" height="14" viewBox="0 0 14 14" fill="none" xmlns="http://www.w3.org/2000/svg">
<circle cx="7" cy="6.99976" r="7" fill="#E0283E"/>
<path fill-rule="evenodd" clip-rule="evenodd" d="M6.125 3.73944C6.125 3.36546 6.51657 3.06226 6.99978 3.06226C7.48298 3.06226 7.875 3.36546 7.875 3.73944V7.62138C7.875 7.99536 7.48298 8.29857 6.99978 8.29857C6.51657 8.29857 6.125 7.99536 6.125 7.62138V3.73944ZM6.125 9.85567C6.125 9.48169 6.51657 9.17849 6.99978 9.17849C7.48298 9.17849 7.875 9.48161 7.875 9.85567V10.2601C7.875 10.634 7.48298 10.9373 6.99978 10.9373C6.51657 10.9373 6.125 10.634 6.125 10.2601V9.85567Z" fill="white"/>
</svg>
