<svg width="13" height="16" viewBox="0 0 13 16" fill="none" xmlns="http://www.w3.org/2000/svg">
<path d="M12.3081 3.95836L9.13926 0.70822C8.80057 0.360991 8.35355 0.135184 7.79843 0.0311279V5.3333H12.9682C12.8666 4.7637 12.6464 4.30544 12.3081 3.95836Z" fill="#F68C28"/>
<path d="M7.47503 6.66658C7.20407 6.66658 6.97384 6.56942 6.7843 6.37495C6.5947 6.18059 6.5 5.94446 6.5 5.66663V0H0.974959C0.704175 0 0.473944 0.0971601 0.284373 0.291626C0.0947674 0.485983 0 0.722115 0 0.99995V15C0 15.2779 0.0947674 15.5141 0.284373 15.7084C0.473979 15.9027 0.704175 16 0.974995 16H12.0253C12.296 16 12.5261 15.9027 12.7156 15.7084C12.9052 15.5139 13 15.2779 13 15V6.66658H7.47503Z" fill="#F68C28"/>
</svg>
