<svg width="16" height="19" viewBox="0 0 16 19" fill="none" xmlns="http://www.w3.org/2000/svg">
<path d="M15.9959 5.16816C15.9388 3.73364 15.3378 2.40516 14.3028 1.43011C13.8138 0.97065 13.2576 0.613061 12.6484 0.367739C12.0392 0.124496 11.3954 -0.000244141 10.7332 -0.000244141C10.6619 -0.000244141 10.5886 0.00183486 10.5173 0.00391386C9.11143 0.0621259 7.81156 0.675431 6.85397 1.73364L0.927106 8.25963C0.737626 8.46963 0.747813 8.79603 0.951555 8.99144L1.36311 9.38645C1.56889 9.58395 1.89284 9.57356 2.0864 9.3615L8.01733 2.83136C8.69376 2.08292 9.68598 1.65256 10.7373 1.65256C11.6827 1.65256 12.5689 1.9956 13.2291 2.6193C13.9523 3.30121 14.3741 4.22845 14.4128 5.23468C14.4515 6.23884 14.1092 7.19518 13.445 7.92907L5.38908 16.7045C4.98567 17.1494 4.39686 17.4052 3.77137 17.4052C3.20904 17.4052 2.68135 17.2014 2.28812 16.8293C1.85823 16.4239 1.60966 15.8729 1.58318 15.2742C1.55873 14.6775 1.76247 14.1079 2.15569 13.6734C2.15569 13.6734 9.65341 5.50911 9.66565 5.49872C10.3217 4.80433 11.3506 5.81472 10.6945 6.50911C9.58008 7.68791 6.7175 10.8418 5.31575 12.3906C5.12625 12.6006 5.13644 12.927 5.34018 13.1224L5.75174 13.5174C5.95754 13.7149 6.28147 13.7045 6.47503 13.4925L11.8722 7.55485C12.7258 6.61098 12.6688 5.13281 11.7418 4.25963C11.32 3.86254 10.7679 3.64217 10.1913 3.64217C9.87956 3.64217 9.578 3.70454 9.29276 3.82928C8.99939 3.9561 8.7386 4.14321 8.52262 4.38437L0.998416 12.5715C-0.413517 14.1328 -0.315721 16.5756 1.21438 18.0185C1.88673 18.6526 2.79339 18.9998 3.76727 18.9998C4.84914 18.9998 5.86174 18.5652 6.54632 17.8085L14.6023 9.033C15.5558 7.97689 16.0509 6.60475 15.9959 5.16816Z" fill="#A1A1A1"/>
</svg>
