<?xml version="1.0" encoding="utf-8"?><svg xmlns="http://www.w3.org/2000/svg" xmlns:xlink="http://www.w3.org/1999/xlink"><symbol viewBox="0 0 11 7" id="arrow-bottom-s-b" xmlns="http://www.w3.org/2000/svg"><path fill-rule="evenodd" clip-rule="evenodd" d="M10.379.683a.922.922 0 0 0-1.324 0L5.5 4.351 1.945.683A.922.922 0 0 0 .621 1.966l3.443 3.552a2 2 0 0 0 2.872 0l3.443-3.552a.922.922 0 0 0 0-1.283z"/></symbol><symbol viewBox="0 0 451.846 451.847" id="btn-arrow" xmlns="http://www.w3.org/2000/svg"><path d="M345.441 248.292L151.154 442.573c-12.359 12.365-32.397 12.365-44.75 0-12.354-12.354-12.354-32.391 0-44.744L278.318 225.92 106.409 54.017c-12.354-12.359-12.354-32.394 0-44.748 12.354-12.359 32.391-12.359 44.75 0l194.287 194.284c6.177 6.18 9.262 14.271 9.262 22.366 0 8.099-3.091 16.196-9.267 22.373z"/></symbol><symbol viewBox="0 0 350 350" id="btn-user" xmlns="http://www.w3.org/2000/svg"><path d="M175 171.173c38.914 0 70.463-38.318 70.463-85.586C245.463 38.318 235.105 0 175 0s-70.465 38.318-70.465 85.587c0 47.268 31.549 85.586 70.465 85.586zM41.909 301.853c-.012-2.882-.024-.812 0 0zm266.176 2.251c.038-.789.013-5.474 0 0z"/><path d="M307.935 298.397c-1.305-82.342-12.059-105.805-94.352-120.657 0 0-11.584 14.761-38.584 14.761s-38.586-14.761-38.586-14.761C55.018 192.43 43.61 215.545 42.11 295.722c-.123 6.547-.18 6.891-.202 6.131.005 1.424.011 4.058.011 8.651 0 0 19.592 39.496 133.08 39.496 113.486 0 133.08-39.496 133.08-39.496 0-2.951.002-5.003.005-6.399-.022.47-.066-.441-.149-5.708z"/></symbol><symbol viewBox="0 0 14 8" id="input-arrow-s-g" xmlns="http://www.w3.org/2000/svg"><path opacity=".7" fill-rule="evenodd" clip-rule="evenodd" d="M12.775.705a1.106 1.106 0 0 0-1.51 0L6.697 4.973 2.13.705A1.106 1.106 0 0 0 .62 2.322l4.712 4.402a2 2 0 0 0 2.73 0l4.713-4.402a1.106 1.106 0 0 0 0-1.617z"/></symbol><symbol viewBox="0 0 14 12" id="message-s-o" xmlns="http://www.w3.org/2000/svg"><path d="M12.338.683H1.662C.745.683 0 1.4 0 2.28v7.442c0 .88.745 1.596 1.662 1.596h10.676c.917 0 1.662-.716 1.662-1.596V2.279c0-.88-.745-1.596-1.662-1.596zm0 9.225H1.662c-.135 0-.253-.087-.253-.187V3.263L6.238 7.34a.55.55 0 0 0 .354.13h.816a.55.55 0 0 0 .354-.13l4.83-4.077v6.458c0 .1-.119.187-.254.187zM7 6.07L2.303 2.092h9.394L7 6.071z"/></symbol><symbol viewBox="0 0 212.982 212.982" id="popup-close" xmlns="http://www.w3.org/2000/svg"><path d="M131.804 106.491l75.936-75.936c6.99-6.99 6.99-18.323 0-25.312-6.99-6.99-18.322-6.99-25.312 0L106.491 81.18 30.554 5.242c-6.99-6.99-18.322-6.99-25.312 0-6.989 6.99-6.989 18.323 0 25.312l75.937 75.936-75.937 75.937c-6.989 6.99-6.989 18.323 0 25.312 6.99 6.99 18.322 6.99 25.312 0l75.937-75.937 75.937 75.937c6.989 6.99 18.322 6.99 25.312 0 6.99-6.99 6.99-18.322 0-25.312l-75.936-75.936z" fill-rule="evenodd" clip-rule="evenodd"/></symbol></svg>