<?xml version="1.0" encoding="utf-8"?><svg width="166" height="175" viewBox="0 0 166 175" xmlns="http://www.w3.org/2000/svg" xmlns:xlink="http://www.w3.org/1999/xlink"><svg viewBox="0 0 60 60" width="60" height="60" id="doc" xmlns="http://www.w3.org/2000/svg"><path d="M54.168 0H5.832A2.836 2.836 0 0 0 3 2.832v54.336A2.836 2.836 0 0 0 5.832 60h48.336A2.836 2.836 0 0 0 57 57.168V2.832A2.836 2.836 0 0 0 54.168 0zM5.832 2h48.336c.459 0 .832.373.832.832V29H5V2.832C5 2.373 5.373 2 5.832 2zm48.336 56H5.832A.833.833 0 0 1 5 57.168V31h50v26.168a.833.833 0 0 1-.832.832z"/><path d="M24.505 18h10.99A3.509 3.509 0 0 0 39 14.495V13a1 1 0 1 0-2 0v1.495c0 .83-.675 1.505-1.505 1.505h-10.99c-.83 0-1.505-.675-1.505-1.505V13a1 1 0 1 0-2 0v1.495A3.509 3.509 0 0 0 24.505 18zM38 41a1 1 0 0 0-1 1v1.495c0 .83-.675 1.505-1.505 1.505h-10.99c-.83 0-1.505-.675-1.505-1.505V42a1 1 0 1 0-2 0v1.495A3.509 3.509 0 0 0 24.505 47h10.99A3.509 3.509 0 0 0 39 43.495V42a1 1 0 0 0-1-1z"/></svg><svg width="14" height="14" fill="none" viewBox="0 0 14 14" id="error-s" x="60" y="60" xmlns="http://www.w3.org/2000/svg"><circle cx="7" cy="7" r="7" fill="#E0283E"/><path fill-rule="evenodd" clip-rule="evenodd" d="M6.125 3.74c0-.375.392-.678.875-.678s.875.303.875.677v3.882c0 .374-.392.678-.875.678s-.875-.304-.875-.678V3.74zm0 6.116c0-.374.392-.678.875-.678s.875.304.875.678v.404c0 .374-.392.677-.875.677s-.875-.303-.875-.677v-.404z" fill="#fff"/></svg><svg viewBox="0 0 33 33" width="33" height="33" id="service-icon1" x="74" y="74" xmlns="http://www.w3.org/2000/svg"><path d="M7.282 32.706a.5.5 0 0 1-.5-.5v-7.124C2.405 22.806 0 18.821 0 13.828 0 6.112 7.093.294 16.5.294S33 6.112 33 13.828c0 7.715-7.093 13.533-16.5 13.533-.309 0-.612-.017-.916-.033l-.02-.001-8.007 5.296a.498.498 0 0 1-.275.083zM16.5 1.294C7.664 1.294 1 6.683 1 13.828c0 3.323 1.128 7.842 6.503 10.499a.5.5 0 0 1 .278.448v6.501l7.369-4.874a.456.456 0 0 1 .302-.082l.186.01c.286.016.571.031.861.031 8.836 0 15.5-5.388 15.5-12.533S25.336 1.294 16.5 1.294z"/></svg><svg width="14" height="14" fill="none" viewBox="0 0 14 14" id="upload-close-s-g" x="107" y="107" xmlns="http://www.w3.org/2000/svg"><rect x=".209" y="12.812" width="17.75" height="1.475" rx=".738" transform="rotate(-45 .21 12.812)" fill="#A1A1A1" stroke="#A1A1A1" stroke-width=".25"/><rect x="12.637" y="13.864" width="17.75" height="1.475" rx=".738" transform="rotate(-135 12.637 13.864)" fill="#A1A1A1" stroke="#A1A1A1" stroke-width=".25"/></svg><svg width="16" height="19" fill="none" viewBox="0 0 16 19" id="upload-icon-s-b" x="121" y="121" xmlns="http://www.w3.org/2000/svg"><path d="M15.996 5.168a5.398 5.398 0 0 0-1.693-3.738A5.302 5.302 0 0 0 12.648.368a5.14 5.14 0 0 0-2.13-.364 5.198 5.198 0 0 0-3.664 1.73L.927 8.26c-.19.21-.18.536.025.731l.411.395c.206.198.53.188.723-.024l5.931-6.53c.677-.75 1.669-1.18 2.72-1.18.946 0 1.832.344 2.492.967a3.77 3.77 0 0 1 1.184 2.616 3.77 3.77 0 0 1-.968 2.694l-8.056 8.776a2.18 2.18 0 0 1-1.618.7c-.562 0-1.09-.204-1.483-.576a2.257 2.257 0 0 1-.705-1.555 2.235 2.235 0 0 1 .573-1.6s7.497-8.165 7.51-8.175c.656-.695 1.685.316 1.028 1.01-1.114 1.179-3.977 4.333-5.378 5.882-.19.21-.18.536.024.731l.412.395c.206.198.53.188.723-.024l5.397-5.938a2.368 2.368 0 0 0-.13-3.295 2.258 2.258 0 0 0-2.45-.43 2.203 2.203 0 0 0-.77.554L.999 12.572c-1.412 1.56-1.314 4.004.216 5.447.673.634 1.58.98 2.553.98 1.082 0 2.095-.434 2.78-1.19l8.055-8.776a5.422 5.422 0 0 0 1.394-3.865z" fill="#2B3134"/></svg><svg width="16" height="19" fill="none" viewBox="0 0 16 19" id="upload-icon-s-g" x="137" y="140" xmlns="http://www.w3.org/2000/svg"><path d="M15.996 5.168a5.398 5.398 0 0 0-1.693-3.738A5.302 5.302 0 0 0 12.648.368a5.14 5.14 0 0 0-2.13-.364 5.198 5.198 0 0 0-3.664 1.73L.927 8.26c-.19.21-.18.536.025.731l.411.395c.206.198.53.188.723-.024l5.931-6.53c.677-.75 1.669-1.18 2.72-1.18.946 0 1.832.344 2.492.967a3.77 3.77 0 0 1 1.184 2.616 3.77 3.77 0 0 1-.968 2.694l-8.056 8.776a2.18 2.18 0 0 1-1.618.7c-.562 0-1.09-.204-1.483-.576a2.257 2.257 0 0 1-.705-1.555 2.235 2.235 0 0 1 .573-1.6s7.497-8.165 7.51-8.175c.656-.695 1.685.316 1.028 1.01-1.114 1.179-3.977 4.333-5.378 5.882-.19.21-.18.536.024.731l.412.395c.206.198.53.188.723-.024l5.397-5.938a2.368 2.368 0 0 0-.13-3.295 2.258 2.258 0 0 0-2.45-.43 2.203 2.203 0 0 0-.77.554L.999 12.572c-1.412 1.56-1.314 4.004.216 5.447.673.634 1.58.98 2.553.98 1.082 0 2.095-.434 2.78-1.19l8.055-8.776a5.422 5.422 0 0 0 1.394-3.865z" fill="#A1A1A1"/></svg><svg width="13" height="16" fill="none" viewBox="0 0 13 16" id="upload-loaded-s-o" x="153" y="159" xmlns="http://www.w3.org/2000/svg"><path d="M12.308 3.958L9.14.708C8.801.361 8.354.135 7.8.031v5.302h5.17c-.102-.57-.323-1.028-.66-1.375z" fill="#F68C28"/><path d="M7.475 6.667a.928.928 0 0 1-.69-.292.977.977 0 0 1-.285-.708V0H.975a.928.928 0 0 0-.69.292A.977.977 0 0 0 0 1v14c0 .278.095.514.284.708.19.195.42.292.691.292h11.05a.924.924 0 0 0 .69-.292A.977.977 0 0 0 13 15V6.667H7.475z" fill="#F68C28"/></svg></svg>