<svg width="14" height="12" viewBox="0 0 14 12" fill="none" xmlns="http://www.w3.org/2000/svg">
<path d="M12.3384 0.68338H1.66168C0.745436 0.68338 0 1.39925 0 2.27915V9.72095C0 10.6008 0.745436 11.3167 1.66168 11.3167H12.3384C13.2546 11.3167 14 10.6008 14 9.72095V2.27915C14 1.39925 13.2546 0.68338 12.3384 0.68338ZM12.3384 9.90791H1.66168C1.527 9.90791 1.40888 9.82057 1.40888 9.72095V3.26321L6.23765 7.33992C6.33665 7.42352 6.46254 7.46954 6.59216 7.46954L7.40769 7.46958C7.53724 7.46958 7.6632 7.42352 7.76223 7.33992L12.5912 3.26306V9.72102C12.5912 9.82057 12.473 9.90791 12.3384 9.90791ZM7.00002 6.0707L2.30343 2.09218H11.6966L7.00002 6.0707Z" fill="#F68C28"/>
</svg>
